<svg id="a26a354a-863a-41b2-8eb8-76017fad1c55" data-name="Layer 1" xmlns="http://www.w3.org/2000/svg" width="865.76" height="682.89" viewBox="0 0 865.76 682.89"><g id="e85de5cc-555a-4a6b-b8d6-9ef0fef9a3ab" data-name="freepik--background-complete--inject-478"><rect x="11.55" y="581.28" width="837.43" height="0.42" fill="#ebebeb"/><rect x="709.59" y="608.23" width="55.47" height="0.42" fill="#ebebeb"/><rect x="551.74" y="612.79" width="14.55" height="0.42" fill="#ebebeb"/><rect x="675.78" y="592.69" width="32.14" height="0.42" fill="#ebebeb"/><rect x="99.41" y="595.5" width="72.34" height="0.42" fill="#ebebeb"/><rect x="186.67" y="595.5" width="10.6" height="0.42" fill="#ebebeb"/><rect x="231.74" y="602.57" width="156.9" height="0.42" fill="#ebebeb"/><path d="M408.49,506.58H85.09A9.55,9.55,0,0,1,75.54,497V42.41a9.57,9.57,0,0,1,9.55-9.48h323.4a9.57,9.57,0,0,1,9.56,9.57h0V497A9.56,9.56,0,0,1,408.49,506.58ZM85.09,33.27A9.15,9.15,0,0,0,76,42.41V497a9.16,9.16,0,0,0,9.13,9.15h323.4a9.17,9.17,0,0,0,9.14-9.15V42.41a9.16,9.16,0,0,0-9.14-9.14Z" fill="#ebebeb"/><path d="M770.78,506.58H447.36A9.57,9.57,0,0,1,437.8,497V42.41a9.58,9.58,0,0,1,9.56-9.48H770.78a9.58,9.58,0,0,1,9.53,9.48V497A9.56,9.56,0,0,1,770.78,506.58ZM447.36,33.27a9.16,9.16,0,0,0-9.14,9.14V497a9.16,9.16,0,0,0,9.14,9.15H770.78a9.17,9.17,0,0,0,9.14-9.15V42.41a9.16,9.16,0,0,0-9.14-9.14Z" fill="#ebebeb"/><path d="M259.53,345.6v3.67a169.73,169.73,0,0,0,20.65,81.19l20-11.07a146.71,146.71,0,0,1-17.84-70.12V346Z" fill="#e6e6e6"/><path d="M424,518.07l.49-23h-.64a144.25,144.25,0,0,1-109.72-54.57L296.37,455a166.94,166.94,0,0,0,127,63.14Z" fill="#e6e6e6"/><path d="M357.3,221.27l-11-20.1a169.13,169.13,0,0,0-24.26,16.38l14.29,17.89A148.12,148.12,0,0,1,357.3,221.27Z" fill="#e6e6e6"/><path d="M497.25,477l11,20.09a167.14,167.14,0,0,0,24.14-16.46l-14.32-17.85A146.45,146.45,0,0,1,497.25,477Z" fill="#e6e6e6"/><path d="M554,278.72a146.8,146.8,0,0,1,18,70.34V352l22.78.4V349a169.93,169.93,0,0,0-20.82-81.5Z" fill="#e6e6e6"/><path d="M430.85,180.32l-.37,7.72-.12,15.23a144.29,144.29,0,0,1,109.55,54.35l17.74-14.42A167,167,0,0,0,430.85,180.32Z" fill="#e6e6e6"/><ellipse cx="427.11" cy="349.18" rx="111.55" ry="112.4" fill="#e6e6e6"/><path d="M637.61,310.27a215.72,215.72,0,0,0-51.24-105.08l-10.16,9.22a201.87,201.87,0,0,1,47.95,98.33Z" fill="#e6e6e6"/><path d="M397.13,149.61l-2-13.62a211.14,211.14,0,0,0-66.81,21.94l6.31,12.21A197.14,197.14,0,0,1,397.13,149.61Z" fill="#e6e6e6"/><path d="M640.56,333.77l-13.64,1c.32,4.73.49,9.57.5,14.36v4.62a204.09,204.09,0,0,1-6.56,47l13.23,3.52a219.21,219.21,0,0,0,7-50.25V349.1C641.09,344,640.91,338.83,640.56,333.77Z" fill="#e6e6e6"/><path d="M531.52,160.94a215.55,215.55,0,0,0-21.13-10.41l-5.33,12.68A197.22,197.22,0,0,1,524.84,173Z" fill="#e6e6e6"/><path d="M315.67,181.46,308,170a215.65,215.65,0,0,0-75.37,89l12.42,5.76A201.86,201.86,0,0,1,315.67,181.46Z" fill="#e6e6e6"/><path d="M213.2,344.34v6.82l13.68-.1v-6.3c.12-5.28.45-10.6,1-15.84l-13.61-1.38C213.67,333,213.33,338.71,213.2,344.34Z" fill="#e6e6e6"/><path d="M257.25,456.17l-11.59,7.32a215.57,215.57,0,0,0,46.54,53l8.63-10.68A201.4,201.4,0,0,1,257.25,456.17Z" fill="#e6e6e6"/><path d="M422.62,551a198.88,198.88,0,0,1-104-32.08l-7.42,11.58a212.62,212.62,0,0,0,111.09,34.27h4.89A212.19,212.19,0,0,0,495,553.65l-4.33-13.07A200.38,200.38,0,0,1,422.62,551Z" fill="#e6e6e6"/><path d="M548.77,509.53l8.38,10.94A212.72,212.72,0,0,0,575,505.06l-9.51-9.86A196.75,196.75,0,0,1,548.77,509.53Z" fill="#e6e6e6"/><rect x="124.46" y="400.5" width="67.9" height="3.2" fill="#f0f0f0"/><rect x="124.46" y="407.23" width="67.9" height="3.2" fill="#f0f0f0"/><rect x="124.46" y="413.95" width="67.9" height="3.2" fill="#f0f0f0"/><rect x="113.49" y="420.68" width="78.85" height="3.2" fill="#f0f0f0"/><rect x="113.49" y="427.4" width="78.85" height="3.2" fill="#f0f0f0"/><rect x="113.49" y="434.13" width="78.85" height="3.2" fill="#f0f0f0"/><rect x="102.54" y="440.86" width="89.81" height="3.2" fill="#f0f0f0"/><rect x="102.54" y="447.58" width="89.81" height="3.2" fill="#f0f0f0"/><rect x="113.49" y="454.31" width="78.85" height="3.2" fill="#f0f0f0"/><rect x="102.54" y="461.03" width="89.81" height="3.2" fill="#f0f0f0"/><rect x="200.24" y="400.45" width="13.52" height="13.52" fill="#f0f0f0"/><rect x="634.48" y="171.16" width="67.9" height="3.2" fill="#f0f0f0"/><rect x="634.48" y="164.43" width="67.9" height="3.2" fill="#f0f0f0"/><rect x="634.48" y="157.71" width="67.9" height="3.2" fill="#f0f0f0"/><rect x="634.46" y="150.98" width="78.85" height="3.2" fill="#f0f0f0"/><rect x="634.46" y="144.25" width="78.85" height="3.2" fill="#f0f0f0"/><rect x="634.46" y="137.53" width="78.85" height="3.2" fill="#f0f0f0"/><rect x="634.46" y="130.8" width="89.81" height="3.2" fill="#f0f0f0"/><rect x="613.05" y="130.76" width="13.52" height="13.52" fill="#f0f0f0"/><rect x="668.17" y="413.98" width="67.9" height="3.2" fill="#f0f0f0"/><rect x="668.17" y="420.71" width="67.9" height="3.2" fill="#f0f0f0"/><rect x="668.17" y="427.43" width="67.9" height="3.2" fill="#f0f0f0"/><rect x="668.17" y="434.18" width="78.85" height="3.2" fill="#f0f0f0"/><rect x="668.17" y="440.91" width="78.85" height="3.2" fill="#f0f0f0"/><rect x="668.17" y="447.63" width="89.81" height="3.2" fill="#f0f0f0"/><rect x="668.17" y="454.36" width="89.81" height="3.2" fill="#f0f0f0"/><rect x="668.17" y="461.08" width="78.85" height="3.2" fill="#f0f0f0"/><rect x="668.17" y="467.81" width="89.81" height="3.2" fill="#f0f0f0"/><rect x="668.17" y="474.54" width="89.81" height="3.2" fill="#f0f0f0"/><rect x="668.17" y="481.26" width="67.9" height="3.2" fill="#f0f0f0"/><rect x="668.17" y="487.99" width="67.9" height="3.2" fill="#f0f0f0"/><rect x="668.17" y="494.71" width="67.9" height="3.2" fill="#f0f0f0"/><rect x="646.77" y="413.93" width="13.52" height="13.52" fill="#f0f0f0"/><rect x="149.82" y="182.87" width="67.9" height="3.2" fill="#f0f0f0"/><rect x="149.82" y="176.15" width="67.9" height="3.2" fill="#f0f0f0"/><rect x="149.82" y="169.42" width="67.9" height="3.2" fill="#f0f0f0"/><rect x="138.87" y="162.69" width="78.85" height="3.2" fill="#f0f0f0"/><rect x="138.87" y="155.97" width="78.85" height="3.2" fill="#f0f0f0"/><rect x="138.87" y="149.24" width="78.85" height="3.2" fill="#f0f0f0"/><rect x="127.92" y="142.52" width="89.81" height="3.2" fill="#f0f0f0"/><rect x="127.92" y="135.79" width="89.81" height="3.2" fill="#f0f0f0"/><rect x="138.87" y="129.05" width="78.85" height="3.2" fill="#f0f0f0"/><rect x="225.61" y="129" width="13.52" height="13.52" fill="#f0f0f0"/></g><g id="b9e3c90f-83e7-4e3e-b933-a07a3d86f0d0" data-name="freepik--Machine--inject-478"><rect x="250.98" y="594.21" width="370.26" height="45.62" fill="#263238"/><rect x="250.98" y="594.21" width="370.26" height="45.62" fill="#fff" opacity="0.5" style="isolation:isolate"/><polygon points="621.24 639.84 250.98 639.84 276.12 594.21 292.3 622.03 567.23 622.03 582.02 594.21 621.24 639.84" opacity="0.2" style="isolation:isolate"/><polygon points="250.82 437.92 188.01 437.92 122.49 640.27 283.58 640.27 250.82 437.92" fill="#263238"/><polygon points="250.82 437.92 188.01 437.92 122.49 640.27 283.58 640.27 250.82 437.92" fill="#fff" opacity="0.5" style="isolation:isolate"/><polygon points="188.01 437.92 192.03 639.4 283.58 640.27 250.82 437.92 188.01 437.92" fill="#fff" opacity="0.2" style="isolation:isolate"/><polygon points="277.8 635.3 196.85 634.53 196.63 624.19 196.55 620.02 196.38 611.28 196.3 607.11 196.13 598.37 196.05 594.21 195.86 585.45 195.78 581.3 195.61 572.56 195.53 568.39 195.36 559.64 195.28 555.47 195.09 546.73 195.01 542.56 194.84 533.82 194.76 529.66 194.59 520.92 194.51 516.75 194.32 508.01 194.24 503.85 194.07 495.1 193.97 490.93 193.82 482.18 193.74 478.03 193.55 469.27 193.47 465.12 193.3 456.37 193.22 452.2 193.03 442.84 246.63 442.84 277.8 635.3" opacity="0.3" style="isolation:isolate"/><polygon points="244.65 452.2 244.65 456.37 193.3 456.37 193.22 452.2 244.65 452.2" fill="#fff" opacity="0.2" style="isolation:isolate"/><polygon points="246.76 465.12 246.76 469.27 193.55 469.27 193.47 465.12 246.76 465.12" fill="#fff" opacity="0.2" style="isolation:isolate"/><polygon points="248.87 478.03 248.87 482.18 193.82 482.18 193.74 478.03 248.87 478.03" fill="#fff" opacity="0.2" style="isolation:isolate"/><polygon points="250.98 490.93 250.98 495.1 194.07 495.1 193.97 490.93 250.98 490.93" fill="#fff" opacity="0.2" style="isolation:isolate"/><polygon points="253.09 503.85 253.09 508.01 194.32 508.01 194.24 503.85 253.09 503.85" fill="#fff" opacity="0.2" style="isolation:isolate"/><polygon points="255.2 516.75 255.2 520.92 194.59 520.92 194.51 516.75 255.2 516.75" fill="#fff" opacity="0.2" style="isolation:isolate"/><polygon points="257.31 529.66 257.31 533.82 194.84 533.82 194.76 529.66 257.31 529.66" fill="#fff" opacity="0.2" style="isolation:isolate"/><polygon points="259.41 542.56 259.41 546.73 195.09 546.73 195.01 542.56 259.41 542.56" fill="#fff" opacity="0.2" style="isolation:isolate"/><polygon points="261.52 555.47 261.52 559.64 195.36 559.64 195.28 555.47 261.52 555.47" fill="#fff" opacity="0.2" style="isolation:isolate"/><polygon points="263.65 568.39 263.65 572.56 195.61 572.56 195.53 568.39 263.65 568.39" fill="#fff" opacity="0.2" style="isolation:isolate"/><polygon points="265.76 581.3 265.76 585.45 195.86 585.45 195.78 581.3 265.76 581.3" fill="#fff" opacity="0.2" style="isolation:isolate"/><polygon points="267.87 594.21 267.87 598.37 196.13 598.37 196.05 594.21 267.87 594.21" fill="#fff" opacity="0.2" style="isolation:isolate"/><polygon points="269.98 607.11 269.98 611.28 196.38 611.28 196.3 607.11 269.98 607.11" fill="#fff" opacity="0.2" style="isolation:isolate"/><polygon points="272.09 620.02 272.09 624.19 196.63 624.19 196.55 620.02 272.09 620.02" fill="#fff" opacity="0.2" style="isolation:isolate"/><polygon points="609 437.92 671.81 437.92 737.33 640.27 576.24 640.27 609 437.92" fill="#263238"/><polygon points="609 437.92 671.81 437.92 737.33 640.27 576.24 640.27 609 437.92" fill="#fff" opacity="0.5" style="isolation:isolate"/><polygon points="671.81 437.92 667.79 639.4 576.24 640.27 609 437.92 671.81 437.92" fill="#fff" opacity="0.2" style="isolation:isolate"/><polygon points="582.02 635.3 662.97 634.53 663.18 624.19 663.27 620.02 663.43 611.28 663.52 607.11 663.7 598.37 663.77 594.21 663.95 585.45 664.04 581.3 664.2 572.56 664.29 568.39 664.46 559.64 664.54 555.47 664.72 546.73 664.81 542.56 664.98 533.82 665.06 529.66 665.23 520.92 665.31 516.75 665.49 508.01 665.58 503.85 665.75 495.1 665.83 490.93 666 482.18 666.08 478.03 666.26 469.27 666.35 465.12 666.53 456.37 666.6 452.2 666.78 442.84 613.19 442.84 582.02 635.3" opacity="0.3" style="isolation:isolate"/><polygon points="615.16 452.2 615.16 456.37 666.53 456.37 666.6 452.2 615.16 452.2" fill="#fff" opacity="0.2" style="isolation:isolate"/><polygon points="613.05 465.12 613.05 469.27 666.26 469.27 666.35 465.12 613.05 465.12" fill="#fff" opacity="0.2" style="isolation:isolate"/><polygon points="610.94 478.03 610.94 482.18 666 482.18 666.08 478.03 610.94 478.03" fill="#fff" opacity="0.2" style="isolation:isolate"/><polygon points="608.83 490.93 608.83 495.1 665.75 495.1 665.83 490.93 608.83 490.93" fill="#fff" opacity="0.2" style="isolation:isolate"/><polygon points="606.72 503.85 606.72 508.01 665.49 508.01 665.58 503.85 606.72 503.85" fill="#fff" opacity="0.2" style="isolation:isolate"/><polygon points="604.61 516.75 604.61 520.92 665.23 520.92 665.31 516.75 604.61 516.75" fill="#fff" opacity="0.2" style="isolation:isolate"/><polygon points="602.5 529.66 602.5 533.82 664.98 533.82 665.06 529.66 602.5 529.66" fill="#fff" opacity="0.2" style="isolation:isolate"/><polygon points="600.41 542.56 600.41 546.73 664.72 546.73 664.81 542.56 600.41 542.56" fill="#fff" opacity="0.2" style="isolation:isolate"/><polygon points="598.3 555.47 598.3 559.64 664.46 559.64 664.54 555.47 598.3 555.47" fill="#fff" opacity="0.2" style="isolation:isolate"/><polygon points="596.17 568.39 596.17 572.56 664.2 572.56 664.29 568.39 596.17 568.39" fill="#fff" opacity="0.2" style="isolation:isolate"/><polygon points="594.06 581.3 594.06 585.45 663.95 585.45 664.04 581.3 594.06 581.3" fill="#fff" opacity="0.2" style="isolation:isolate"/><polygon points="591.95 594.21 591.95 598.37 663.7 598.37 663.77 594.21 591.95 594.21" fill="#fff" opacity="0.2" style="isolation:isolate"/><polygon points="589.84 607.11 589.84 611.28 663.43 611.28 663.52 607.11 589.84 607.11" fill="#fff" opacity="0.2" style="isolation:isolate"/><polygon points="587.73 620.02 587.73 624.19 663.18 624.19 663.27 620.02 587.73 620.02" fill="#fff" opacity="0.2" style="isolation:isolate"/></g><path d="M573.58,163.48s-8.44,12.87-7.71,13.74,4.06,5.89,4.06,5.89a10.06,10.06,0,0,0-9.74,2.64c-4.6,4.37-4.42,8.41-4.42,8.41l4.45,3.08,3.86-3.26-.64,9.78,4.12,5.38s-11.25,2-14,3-9.86,10.68-10.24,12.43-1.89,10.14-.12,11.39a.86.86,0,0,0,.68.13c2.78-.52,10-9.41,12.07-10.24,0,0-1,11.91.24,12.25s3.4-1.5,1.21.35l-6.7,5.69s-1.89,1.6.92,7.08,4.13,4.33,3.93,6.81,0,8.74,0,8.74-67.27,37.65-79.79,38.12-36.12-8.81-36.12-8.81.87-1.86,2.28-4.69h0c4.41-8.91,13.93-27.44,17-27.57,4-.16,20.11-9.49,31.86-16.31s31.84-34.27,35.6-41.26,24.32-28.09,24.32-28.09Z" fill="#00a1f2"/><path d="M557.37,238.5l-6.7,5.68s-1.89,1.6.92,7.08,4.14,4.33,3.93,6.81,0,8.74,0,8.74-67.27,37.65-79.79,38.13-36.12-8.82-36.12-8.82.87-1.86,2.28-4.68h0S466.45,270,473.39,268s36.47-7.6,41.9-10.45c2.72-1.4,15.61-11.62,27.8-21.5a.82.82,0,0,0,.68.13c2.78-.51,10-9.41,12.07-10.24,0,0-1,11.91.24,12.25S559.53,236.67,557.37,238.5Z" opacity="0.2" style="isolation:isolate"/><rect x="365.06" y="521.5" width="24.18" height="38.43" fill="#434267"/><rect x="478.74" y="520.83" width="24.18" height="38.43" transform="translate(981.66 1080.1) rotate(-180)" fill="#434267"/><rect x="396.53" y="433.54" width="77.52" height="13.42" fill="#434267"/><rect x="396.53" y="433.54" width="77.52" height="13.42" opacity="0.2"/><path d="M423.54,418.84h22.09a0,0,0,0,1,0,0v25.32a9.89,9.89,0,0,1-9.89,9.89h-2.3a9.89,9.89,0,0,1-9.89-9.89V418.84a0,0,0,0,1,0,0Z" fill="#434267"/><rect x="302.15" y="374.25" width="19.88" height="40.25" transform="translate(624.17 788.74) rotate(-180)" fill="#434267"/><rect x="328.09" y="295.24" width="15.12" height="52.17" fill="#434267"/><polygon points="292.58 272.6 292.58 380.21 330.01 380.21 330.01 286.37 292.58 272.6" fill="#00a1f2"/><polygon points="292.58 470.04 324.84 486.6 324.84 394.37 292.58 394.37 292.58 470.04" fill="#00a1f2"/><rect x="545.76" y="374.25" width="19.88" height="40.25" fill="#434267"/><polygon points="575.21 470.04 542.95 486.6 542.95 394.37 575.21 394.37 575.21 470.04" fill="#00a1f2"/><rect x="526.86" y="295.24" width="15.12" height="52.17" fill="#434267"/><polygon points="575.21 272.6 575.21 380.21 537.78 380.21 537.78 286.37 575.21 272.6" fill="#00a1f2"/><polygon points="542.95 501.4 542.95 486.6 568.43 473.52 568.43 492.79 560.62 501.4 542.95 501.4" fill="#434267"/><polygon points="542.95 486.6 542.95 494.11 568.43 473.52 542.95 486.6" opacity="0.2"/><path d="M403.7,399.78h60.46a0,0,0,0,1,0,0v13.83a13,13,0,0,1-13,13H416.74a13,13,0,0,1-13-13V399.78A0,0,0,0,1,403.7,399.78Z" fill="#434267"/><polygon points="397.41 542.26 357.44 521.94 357.44 424.76 397.41 424.76 397.41 542.26" fill="#00a1f2"/><polygon points="397.41 559.92 397.41 657.32 380.29 657.32 336.24 636.78 337.88 629.3 357.44 540.71 397.41 559.92" fill="#00a1f2"/><polygon points="380.29 657.32 309.79 657.32 327.65 633.92 375.19 633.92 380.29 657.32" fill="#434267"/><polygon points="470.57 541.59 510.54 521.28 510.54 424.1 470.57 424.1 470.57 541.59" fill="#00a1f2"/><polygon points="470.57 559.26 470.57 656.65 487.68 656.65 531.74 636.12 530.09 628.64 510.54 540.05 470.57 559.26" fill="#00a1f2"/><polygon points="487.68 656.65 558.18 656.65 540.33 633.26 492.79 633.26 487.68 656.65" fill="#434267"/><polygon points="498.14 396.41 433.94 409.6 366.82 396.14 366.82 296.82 498.14 296.82 498.14 396.41" fill="#00a1f2"/><polygon points="366.82 296.82 376.71 296.82 387.7 381.09 432.48 404.66 480.56 381.09 491.27 296.82 498.14 296.82 498.14 396.41 433.94 409.6 366.82 396.14 366.82 296.82" opacity="0.2"/><polygon points="448.32 303.46 434 313.11 418.96 304.47 418.96 288.98 448.32 288.98 448.32 303.46" fill="#434267"/><polygon points="464.58 292.32 404.08 292.32 396.33 284.56 396.33 260.63 404.08 252.88 463.7 252.88 471.68 261.3 471.68 284.79 464.58 292.32" fill="#00a1f2"/><rect x="404.7" y="263.33" width="58.52" height="13.47" rx="6.03" fill="#434267"/><polygon points="413.33 296.82 424.79 317.94 433.95 381.09 442.49 317.94 454.55 296.82 434 309.49 413.33 296.82" fill="#434267"/><polygon points="413.33 296.82 424.79 317.94 433.95 381.09 442.49 317.94 454.55 296.82 434 309.49 413.33 296.82" opacity="0.2"/><polygon points="529.46 276.8 494.84 284.88 494.84 407.13 529.46 397.79 529.46 276.8" fill="#00a1f2"/><path d="M575.21,284.73v58.33a29.17,29.17,0,0,1,0-58.33Z" opacity="0.2"/><circle cx="575.45" cy="313.9" r="21.88" fill="#434267"/><circle cx="575.45" cy="313.9" r="5.24" opacity="0.2"/><polygon points="338.52 276.8 373.14 284.88 373.14 407.13 338.52 397.79 338.52 276.8" fill="#00a1f2"/><polygon points="324.84 501.4 324.84 486.6 299.36 473.52 299.36 492.79 307.17 501.4 324.84 501.4" fill="#434267"/><polygon points="324.84 486.6 324.84 494.11 299.36 473.52 324.84 486.6" opacity="0.2"/><path d="M292.58,284.73v58.34a29.17,29.17,0,0,0,0-58.34Z" opacity="0.2"/><circle cx="292.34" cy="313.9" r="21.88" fill="#434267"/><circle cx="292.34" cy="313.9" r="5.24" opacity="0.2"/><path d="M397.41,560.31v97H380.29l-44.06-20.54,1.65-7.47h45.4l14.05-69A0,0,0,0,1,397.41,560.31Z" opacity="0.2"/><path d="M470.57,559.64v97h17.11l44.06-20.53-1.65-7.48H484.7l-14.06-69A0,0,0,0,0,470.57,559.64Z" opacity="0.2"/></svg>